<?xml version="1.0" encoding="utf-8"?>
<!-- Generator: Adobe Illustrator 21.0.0, SVG Export Plug-In . SVG Version: 6.00 Build 0)  -->
<svg version="1.1" id="图层_1" xmlns="http://www.w3.org/2000/svg" xmlns:xlink="http://www.w3.org/1999/xlink" x="0px" y="0px"
	 width="360px" height="120px" viewBox="0 0 360 120" style="enable-background:new 0 0 360 120;" xml:space="preserve">
<style type="text/css">
	.st0{fill:#333333;}
	.st1{fill:#0E3384;}
</style>
<g>
	<g>
		<g>
			<path class="st0" d="M43.8,92.3c0,0.5,0.1,1.2,0.3,2c0.2,0.8,0.6,1.5,1.1,2c0.6,0.5,1.3,0.9,2.2,1.1c0.9,0.2,1.8,0.3,2.6,0.3h5.6
				v2.1c0,0.8,0.3,2.1-0.7,2.8c-0.3,0.2-0.6,0.4-1.1,0.4H27.5v-5.4h5.7c1,0,2-0.2,2.8-0.5c0.9-0.4,1.5-0.9,1.9-1.5
				c0.4-0.6,0.7-1.4,0.8-2.4c0.1-0.9,0.2-1.8,0.2-2.5V74.5h4.8V92.3z M61.1,102.3V74.4c0,0-1-5.1-6.1-5.1c-5.1,0-32.9,0-32.9,0v38.8
				h32.5C61.7,108.2,61.1,102.3,61.1,102.3z M33.4,90.3c0,0.8-0.2,1.4-0.5,1.6c-0.3,0.3-1.6,0.4-3,0.4h-2.3V74.5h5.9V90.3z
				 M51.6,92.3c-1,0-1.6-0.1-1.9-0.3c-0.3-0.2-0.5-0.7-0.5-1.5v-16h3.9c0,0,2.4-0.1,2.4,2c0,2.1,0,15.8,0,15.8H51.6z"/>
			<path class="st0" d="M75.3,79.5l-1.9,3.7h-3.8L76.4,69H71c0,0-5.8,12.1-6.1,13c-0.4,0.9-0.4,1.6-0.4,1.6l0,4.5h5.8
				c0,0-2.5,3.8-3.7,5.9c-0.8,1.5-1,3.3-1,3.3v2.5h13.7v-5.1h-6.9l8.4-15.2H75.3z"/>
			<rect x="65.3" y="103.1" class="st0" width="14.6" height="4.8"/>
			<path class="st0" d="M105.9,86.3v-4.8h-6.5v-6.4h6.5v-4.5h-6.5l0.2-1.9h-5.6v1.9h-4.8l0.9-1.9h-5.7c0,0-0.5,1.5-4.1,4.8l0,5.6
				l2.4-1.6v30.6h23.3v-4.5h-6.5v-6.4h6.5v-4.7h-6.5v-6.1H105.9z M93.7,103.4h-5.6V97h5.6V103.4z M93.7,92.4h-5.6v-6.3h5.6V92.4z
				 M93.7,81.5h-5.6v-6.4h5.6V81.5z"/>
			<path class="st0" d="M144.4,101.1c-0.1,2-1.9,1.9-2.7,1.9H116V74.3h25.8c0,0,2.7,0.2,2.7,2.2C144.4,78.5,144.4,101.1,144.4,101.1
				z M149.7,103.2V74.6c0,0-0.2-4.4-5.5-5.3c-4.6,0-33.6,0-33.6,0v38.9h34.3C149.5,107.3,149.7,103.2,149.7,103.2z"/>
			<path class="st0" d="M119.4,91.9h4.9c0,0,1.4,1.4,2.7,1.4c1.2,0,14.8,0,14.8,0v3.4h-14.1C127.7,96.7,122.2,96.9,119.4,91.9z"/>
			<path class="st0" d="M119.4,96.9h4.9c0,0,1.4,1.4,2.7,1.4c1.2,0,14.8,0,14.8,0v3.4h-14.1C127.7,101.7,122.2,101.9,119.4,96.9z"/>
			<path class="st0" d="M122.5,74.7h4.5l-0.7,2h16.2V80l-8.1,6.2l2,0.9c0,0,1,0.4,2.9,0.4c1.9,0,3.2,0,3.2,0V91h-6.2
				c0,0-2.2-0.2-3.5-0.9l-2-1l-1.6,0.9c0,0-0.9,1-2.9,1c-2,0-8.6,0-8.6,0v-3.4h6.1c0,0,2.3-0.2,2.8-0.9l-5.3-3.7h6.7l2.4,1.2l5.3-4
				h-11.5c0,0-2.7,2.5-6.5,3.6v-4.6C117.8,79.2,120.4,78.5,122.5,74.7z"/>
			<g>
				<path class="st0" d="M174.1,80.2h-2.9c0.6-1.5,0.6-5.6,0.6-5.6h2.3v-4.4h-7.6v-1.7h-5.3l0,1.7h-7.8v4.5h2.8
					c-0.1,2.4,0.5,5.6,0.5,5.6h-3.3v4.4h20.8V80.2z M166.6,80.2H161c0,0-0.7-1.9-0.4-5.6h6.8C167.3,74.6,167.4,79.7,166.6,80.2z"/>
				<polygon class="st0" points="174.1,87.7 166.4,87.7 166.4,85.3 161.3,85.3 161.3,87.7 153.2,87.7 153.2,92.2 161.2,92.2 
					161.2,108.1 166.5,108.1 166.5,92.2 174.1,92.2 				"/>
				<path class="st0" d="M154.9,99.7c-0.3,2.5-1.7,3.8-1.7,3.8l0.1,4.7c4.8-1.2,5.8-5.6,5.8-5.6l0.9-8.2l-4.3-0.1
					C155.6,94.4,155.2,97.1,154.9,99.7z"/>
				<path class="st0" d="M180.7,79.2v-4.4h7.1c5.2-0.7,5.1-3.6,5.1-3.6v-2.7h-4.8v0.7c-0.1,0.8-0.9,0.8-0.9,0.8h-11.6l0,32.3
					c0,0.5-0.1,1.2-1.2,1.2c-1.1,0-1.2-1-1.2-1l-1.1-8.1h-4.8l1.2,9.5c1,3.5,4,4.2,4,4.2h3.9c4.3-0.4,4.3-6.3,4.3-6.3V84h5.1v23.9
					h4.9V84h2.5v-4.8H180.7z"/>
			</g>
		</g>
		<path class="st0" d="M21.6,57.4h8.1V34l22.2,19.8c0,0,2.2,3.8,11.2,3.8V22.8h-8v23.4l-24.5-22c0,0-2.6-1.6-4.8-1.6s-4.1,0-4.1,0
			V57.4z"/>
		<path class="st0" d="M67.9,57.6h8.2V35c0,0-0.1-4.3,4.4-5.3h18.2c0,0,4.2,0.6,4.2,5.2v5.3H81.2v7.2h21.6v10.2h8.3V33.1
			c0,0,0.6-8.7-9.8-10.6H77.1c0,0-9.3,1.3-9.3,11.2C67.8,43.5,67.9,57.6,67.9,57.6z"/>
		<path class="st0" d="M115.5,57.5h2.7c0,0,3.4,0.4,6.7-2.1c0,0,2.4-1.8,4.1-3.7c1.6-1.9,27.8-28.9,27.8-28.9h-10.1l-23,23.4V22.5
			h-8.1V57.5z"/>
		<rect x="161.1" y="22.6" class="st1" width="8.2" height="34.9"/>
		<path class="st1" d="M173.9,57.4h8.1V34l22.2,19.8c0,0,2.2,3.8,11.2,3.8V22.8h-8v23.4l-24.5-22c0,0-2.6-1.6-4.8-1.6
			c-2.2,0-4.1,0-4.1,0V57.4z"/>
		<path class="st1" d="M256,29.6v-7h-26.2c0,0-8.3-0.2-9.9,9.5v25.4h8.2V47.1H256v-6.9h-27.9v-5.2c0,0,0.4-5.4,5.4-5.4
			C238.4,29.6,256,29.6,256,29.6z"/>
		<path class="st1" d="M295.2,22.6h-24.4c-10.3,0.8-10.3,10.7-10.3,10.7v14.5c1.2,9.2,9.4,9.8,9.4,9.8h25.6
			c9.7-1,10.1-10.1,10.1-10.1V33.7C305.1,22.5,295.2,22.6,295.2,22.6z M297.4,45.9c0,0-0.3,4.5-5.7,4.7h-18.4c0,0-3.9-0.4-4.7-4.9
			V34.8c0,0,0.4-4.2,4.2-5.1h20.5c0,0,3.8,0.7,4.1,5V45.9z"/>
		<path class="st1" d="M311.2,11.8l28.2,28.3l-28.2,28.1c0,0-0.5,0.8-1.1,0.2c-0.6-0.6,0.3-1.2,0.3-1.2l18.9-27.2l-19.2-27.6
			c0,0-0.5-0.5,0-1C310.7,11,311.2,11.8,311.2,11.8z"/>
	</g>
	<g>
		<g>
			<path class="st0" d="M43.8,92.3c0,0.5,0.1,1.2,0.3,2c0.2,0.8,0.6,1.5,1.1,2c0.6,0.5,1.3,0.9,2.2,1.1c0.9,0.2,1.8,0.3,2.6,0.3h5.6
				v2.1c0,0.8,0.3,2.1-0.7,2.8c-0.3,0.2-0.6,0.4-1.1,0.4H27.5v-5.4h5.7c1,0,2-0.2,2.8-0.5c0.9-0.4,1.5-0.9,1.9-1.5
				c0.4-0.6,0.7-1.4,0.8-2.4c0.1-0.9,0.2-1.8,0.2-2.5V74.5h4.8V92.3z M61.1,102.3V74.4c0,0-1-5.1-6.1-5.1c-5.1,0-32.9,0-32.9,0v38.8
				h32.5C61.7,108.2,61.1,102.3,61.1,102.3z M33.4,90.3c0,0.8-0.2,1.4-0.5,1.6c-0.3,0.3-1.6,0.4-3,0.4h-2.3V74.5h5.9V90.3z
				 M51.6,92.3c-1,0-1.6-0.1-1.9-0.3c-0.3-0.2-0.5-0.7-0.5-1.5v-16h3.9c0,0,2.4-0.1,2.4,2c0,2.1,0,15.8,0,15.8H51.6z"/>
			<path class="st0" d="M75.3,79.5l-1.9,3.7h-3.8L76.4,69H71c0,0-5.8,12.1-6.1,13c-0.4,0.9-0.4,1.6-0.4,1.6l0,4.5h5.8
				c0,0-2.5,3.8-3.7,5.9c-0.8,1.5-1,3.3-1,3.3v2.5h13.7v-5.1h-6.9l8.4-15.2H75.3z"/>
			<rect x="65.3" y="103.1" class="st0" width="14.6" height="4.8"/>
			<path class="st0" d="M105.9,86.3v-4.8h-6.5v-6.4h6.5v-4.5h-6.5l0.2-1.9h-5.6v1.9h-4.8l0.9-1.9h-5.7c0,0-0.5,1.5-4.1,4.8l0,5.6
				l2.4-1.6v30.6h23.3v-4.5h-6.5v-6.4h6.5v-4.7h-6.5v-6.1H105.9z M93.7,103.4h-5.6V97h5.6V103.4z M93.7,92.4h-5.6v-6.3h5.6V92.4z
				 M93.7,81.5h-5.6v-6.4h5.6V81.5z"/>
			<path class="st0" d="M144.4,101.1c-0.1,2-1.9,1.9-2.7,1.9H116V74.3h25.8c0,0,2.7,0.2,2.7,2.2C144.4,78.5,144.4,101.1,144.4,101.1
				z M149.7,103.2V74.6c0,0-0.2-4.4-5.5-5.3c-4.6,0-33.6,0-33.6,0v38.9h34.3C149.5,107.3,149.7,103.2,149.7,103.2z"/>
			<path class="st0" d="M119.4,91.9h4.9c0,0,1.4,1.4,2.7,1.4c1.2,0,14.8,0,14.8,0v3.4h-14.1C127.7,96.7,122.2,96.9,119.4,91.9z"/>
			<path class="st0" d="M119.4,96.9h4.9c0,0,1.4,1.4,2.7,1.4c1.2,0,14.8,0,14.8,0v3.4h-14.1C127.7,101.7,122.2,101.9,119.4,96.9z"/>
			<path class="st0" d="M122.5,74.7h4.5l-0.7,2h16.2V80l-8.1,6.2l2,0.9c0,0,1,0.4,2.9,0.4c1.9,0,3.2,0,3.2,0V91h-6.2
				c0,0-2.2-0.2-3.5-0.9l-2-1l-1.6,0.9c0,0-0.9,1-2.9,1c-2,0-8.6,0-8.6,0v-3.4h6.1c0,0,2.3-0.2,2.8-0.9l-5.3-3.7h6.7l2.4,1.2l5.3-4
				h-11.5c0,0-2.7,2.5-6.5,3.6v-4.6C117.8,79.2,120.4,78.5,122.5,74.7z"/>
			<g>
				<path class="st0" d="M174.1,80.2h-2.9c0.6-1.5,0.6-5.6,0.6-5.6h2.3v-4.4h-7.6v-1.7h-5.3l0,1.7h-7.8v4.5h2.8
					c-0.1,2.4,0.5,5.6,0.5,5.6h-3.3v4.4h20.8V80.2z M166.6,80.2H161c0,0-0.7-1.9-0.4-5.6h6.8C167.3,74.6,167.4,79.7,166.6,80.2z"/>
				<polygon class="st0" points="174.1,87.7 166.4,87.7 166.4,85.3 161.3,85.3 161.3,87.7 153.2,87.7 153.2,92.2 161.2,92.2 
					161.2,108.1 166.5,108.1 166.5,92.2 174.1,92.2 				"/>
				<path class="st0" d="M154.9,99.7c-0.3,2.5-1.7,3.8-1.7,3.8l0.1,4.7c4.8-1.2,5.8-5.6,5.8-5.6l0.9-8.2l-4.3-0.1
					C155.6,94.4,155.2,97.1,154.9,99.7z"/>
				<path class="st0" d="M180.7,79.2v-4.4h7.1c5.2-0.7,5.1-3.6,5.1-3.6v-2.7h-4.8v0.7c-0.1,0.8-0.9,0.8-0.9,0.8h-11.6l0,32.3
					c0,0.5-0.1,1.2-1.2,1.2c-1.1,0-1.2-1-1.2-1l-1.1-8.1h-4.8l1.2,9.5c1,3.5,4,4.2,4,4.2h3.9c4.3-0.4,4.3-6.3,4.3-6.3V84h5.1v23.9
					h4.9V84h2.5v-4.8H180.7z"/>
			</g>
		</g>
		<path class="st0" d="M21.6,57.4h8.1V34l22.2,19.8c0,0,2.2,3.8,11.2,3.8V22.8h-8v23.4l-24.5-22c0,0-2.6-1.6-4.8-1.6s-4.1,0-4.1,0
			V57.4z"/>
		<path class="st0" d="M67.9,57.6h8.2V35c0,0-0.1-4.3,4.4-5.3h18.2c0,0,4.2,0.6,4.2,5.2v5.3H81.2v7.2h21.6v10.2h8.3V33.1
			c0,0,0.6-8.7-9.8-10.6H77.1c0,0-9.3,1.3-9.3,11.2C67.8,43.5,67.9,57.6,67.9,57.6z"/>
		<path class="st0" d="M115.5,57.5h2.7c0,0,3.4,0.4,6.7-2.1c0,0,2.4-1.8,4.1-3.7c1.6-1.9,27.8-28.9,27.8-28.9h-10.1l-23,23.4V22.5
			h-8.1V57.5z"/>
		<rect x="161.1" y="22.6" class="st1" width="8.2" height="34.9"/>
		<path class="st1" d="M173.9,57.4h8.1V34l22.2,19.8c0,0,2.2,3.8,11.2,3.8V22.8h-8v23.4l-24.5-22c0,0-2.6-1.6-4.8-1.6
			c-2.2,0-4.1,0-4.1,0V57.4z"/>
		<path class="st1" d="M256,29.6v-7h-26.2c0,0-8.3-0.2-9.9,9.5v25.4h8.2V47.1H256v-6.9h-27.9v-5.2c0,0,0.4-5.4,5.4-5.4
			C238.4,29.6,256,29.6,256,29.6z"/>
		<path class="st1" d="M295.2,22.6h-24.4c-10.3,0.8-10.3,10.7-10.3,10.7v14.5c1.2,9.2,9.4,9.8,9.4,9.8h25.6
			c9.7-1,10.1-10.1,10.1-10.1V33.7C305.1,22.5,295.2,22.6,295.2,22.6z M297.4,45.9c0,0-0.3,4.5-5.7,4.7h-18.4c0,0-3.9-0.4-4.7-4.9
			V34.8c0,0,0.4-4.2,4.2-5.1h20.5c0,0,3.8,0.7,4.1,5V45.9z"/>
		<path class="st1" d="M311.2,11.8l28.2,28.3l-28.2,28.1c0,0-0.5,0.8-1.1,0.2c-0.6-0.6,0.3-1.2,0.3-1.2l18.9-27.2l-19.2-27.6
			c0,0-0.5-0.5,0-1C310.7,11,311.2,11.8,311.2,11.8z"/>
	</g>
</g>
</svg>
